<svg xmlns="http://www.w3.org/2000/svg" width="312" height="88" fill="none" xmlns:v="https://vecta.io/nano"><g clip-path="url(#C)"><path fill="url(#A)" fill-opacity=".8" d="M0 0h312v88H0z"/><g opacity=".5"><path fill-rule="evenodd" d="M199.164 17.562a6.14 6.14 0 0 1 6.137-6.137h42.23a6.14 6.14 0 0 1 6.136 6.137v7.084h19.192l-2.858-2.858c-.239-.24-.239-.628 0-.868s.629-.24.868 0l3.906 3.906c.239.24.239.628 0 .868l-3.906 3.906c-.239.24-.628.24-.868 0s-.239-.628 0-.868l2.858-2.858h-19.192v8.258a6.14 6.14 0 0 1-6.136 6.137h-42.23a6.14 6.14 0 0 1-6.137-6.137v-9.447h-10.203a1.84 1.84 0 0 0-1.841 1.841v18.067 16.456a1.84 1.84 0 0 0 1.841 1.841h10.203V53.77a6.14 6.14 0 0 1 6.137-6.137h42.23a6.14 6.14 0 0 1 6.136 6.137v7.589h19.192l-2.858-2.858c-.239-.24-.239-.628 0-.868s.629-.24.868 0l3.906 3.906c.239.24.239.628 0 .868l-3.906 3.905c-.239.24-.628.24-.868 0s-.239-.628 0-.868l2.858-2.858h-19.192v7.753a6.14 6.14 0 0 1-6.136 6.137h-42.23a6.14 6.14 0 0 1-6.137-6.137v-6.223h-10.203a3.07 3.07 0 0 1-3.068-3.068V45.206h-11.955a2.44 2.44 0 0 1-.66 1.079l-23.653 22.553c-.948.904-2.44.904-3.388 0l-23.653-22.553c-.17-.162-.311-.342-.424-.534l-3.044 3.043c-.239.24-.628.24-.868 0s-.239-.628 0-.868l2.858-2.858h-16.212a1.84 1.84 0 0 0-1.841 1.841v20.333a3.07 3.07 0 0 1-3.068 3.069H75.152c-.339 0-.614-.275-.614-.614s.275-.614.614-.614h24.833a1.84 1.84 0 0 0 1.841-1.841V46.909a3.07 3.07 0 0 1 3.068-3.068h16.212l-2.858-2.858c-.239-.24-.239-.628 0-.868s.629-.24.868 0l3.084 3.084a2.47 2.47 0 0 1 .423-.504l23.653-21.583c.938-.855 2.372-.855 3.31 0l23.653 21.583c.39.356.638.807.742 1.283h11.912V26.525a3.07 3.07 0 0 1 3.068-3.068h10.203v-5.895zm77.231 4.093a6.14 6.14 0 0 1 6.137-6.137h42.23a6.14 6.14 0 0 1 6.137 6.137v5.523a6.14 6.14 0 0 1-6.137 6.137h-42.23a6.14 6.14 0 0 1-6.137-6.137v-5.523zm6.137 31.298a6.14 6.14 0 0 0-6.137 6.137v5.523a6.14 6.14 0 0 0 6.137 6.137h42.23a6.14 6.14 0 0 0 6.137-6.137V59.09a6.14 6.14 0 0 0-6.137-6.137h-42.23z" fill="url(#B)" fill-opacity=".4"/></g></g><defs><linearGradient id="A" x1="-38.783" y1="37.23" x2="341.516" y2="36.422" gradientUnits="userSpaceOnUse"><stop stop-color="#aeb6df"/><stop offset=".975" stop-color="#293693"/></linearGradient><linearGradient id="B" x1="74.538" y1="43.951" x2="330.899" y2="43.951" gradientUnits="userSpaceOnUse"><stop stop-color="#293693"/></linearGradient><clipPath id="C"><path fill="#fff" d="M0 0h312v88H0z"/></clipPath></defs></svg>