<svg width="60" height="60" viewBox="0 0 60 60" fill="none" xmlns="http://www.w3.org/2000/svg">
<rect x="1" y="1.00012" width="58" height="58" rx="17" fill="#FFE379"/>
<rect x="1" y="1.00012" width="58" height="58" rx="17" stroke="#FAFAFA" stroke-width="2"/>
<g clip-path="url(#clip0_1595_498)">
<path d="M50 2.00012H10C5.58172 2.00012 2 5.58184 2 10.0001V50.0001C2 54.4184 5.58172 58.0001 10 58.0001H50C54.4183 58.0001 58 54.4184 58 50.0001V10.0001C58 5.58184 54.4183 2.00012 50 2.00012Z" fill="#AEB6DF"/>
<path fill-rule="evenodd" clip-rule="evenodd" d="M30.0027 46.0001H31.0336C31.4313 45.9367 31.7695 45.7398 32.1087 45.5423C32.1408 45.5236 32.1728 45.505 32.2049 45.4864C33.5114 44.7318 34.8181 43.9776 36.1248 43.2234C38.5609 41.8173 40.9969 40.4112 43.4315 39.0025C44.209 38.553 44.6155 37.8495 44.7485 36.9751C44.7556 36.9282 44.7548 36.88 44.7541 36.8319C44.7539 36.8171 44.7536 36.8023 44.7536 36.7876V23.251C44.7536 22.7287 44.5656 22.2706 44.2858 21.8418C44.0341 21.4548 43.6889 21.179 43.2905 20.9508C41.8041 20.0991 40.3206 19.242 38.8372 18.3848C38.3775 18.1192 37.9177 17.8536 37.4579 17.5881C35.5635 16.4948 33.6698 15.4014 31.776 14.3075C31.4343 14.1103 31.0617 14.0243 30.6724 14.0042C30.3587 13.9881 30.0491 14.0191 29.7447 14.1022C29.4899 14.1717 29.2661 14.3021 29.0419 14.4326C29.0144 14.4486 28.9868 14.4647 28.9592 14.4806L22.3979 18.2681L17.5417 21.0723C17.1346 21.3074 16.8445 21.6531 16.6186 22.0573C16.4598 22.3411 16.3474 22.6427 16.2998 22.9661C16.298 22.978 16.2946 22.9896 16.2911 23.0012C16.2894 23.007 16.2877 23.0129 16.2861 23.0188V37.017C16.2908 37.04 16.2951 37.063 16.2994 37.0859C16.3091 37.137 16.3187 37.1881 16.3314 37.2383C16.489 37.8684 16.7992 38.405 17.3112 38.8133C17.4687 38.9388 17.6451 39.0355 17.8214 39.1321C17.885 39.167 17.9486 39.2019 18.0113 39.2381C20.6618 40.7695 23.3124 42.2998 25.9635 43.83C26.2617 44.0021 26.56 44.1742 26.8582 44.3462C27.6558 44.8062 28.4533 45.2662 29.2499 45.7278C29.4855 45.8642 29.7395 45.9428 30.0027 46.0001ZM21.1056 31.1729C21.0574 30.7905 21.0328 30.4058 21.0351 30.0193V30.0216C21.0528 27.8435 21.7162 25.885 23.0624 24.1707C24.2699 22.633 25.8139 21.5677 27.6784 20.9732C28.3704 20.7524 29.0802 20.6194 29.8055 20.5661C31.4722 20.444 33.0603 20.7415 34.5717 21.4536C35.4764 21.8796 36.2911 22.4375 37.0204 23.122C37.6689 23.7304 38.2181 24.4166 38.6739 25.1786C38.7284 25.2698 38.7272 25.2726 38.6338 25.3265C37.3312 26.0805 36.0291 26.8339 34.7265 27.5872C34.6319 27.6418 34.6319 27.6417 34.5761 27.5539L34.5728 27.5488C33.734 26.2359 32.5437 25.4687 30.994 25.3013C29.6553 25.1568 28.4604 25.5421 27.4376 26.4142C26.4807 27.2295 25.9331 28.2752 25.7978 29.5286C25.69 30.5302 25.8832 31.4762 26.3861 32.3477C27.1669 33.7013 28.3394 34.5069 29.8863 34.7225C31.7737 34.9856 33.5912 34.101 34.5877 32.4704C34.6244 32.4108 34.6514 32.4073 34.7093 32.4411C35.7165 33.0257 36.7244 33.6089 37.7322 34.192C38.0312 34.365 38.3302 34.538 38.6292 34.711C38.7255 34.7666 38.7261 34.7672 38.6682 34.8635C37.7474 36.3932 36.4975 37.5748 34.9197 38.4085C33.9289 38.9314 32.8769 39.2651 31.7674 39.4147C31.0559 39.5104 30.3415 39.5225 29.626 39.4543C28.0694 39.3058 26.6366 38.8041 25.33 37.9469C24.1173 37.1517 23.1392 36.1283 22.3876 34.8882C21.6933 33.7415 21.2718 32.5008 21.1056 31.1729Z" fill="#293693"/>
</g>
<defs>
<clipPath id="clip0_1595_498">
<rect x="2" y="2.00012" width="56" height="56" rx="16" fill="white"/>
</clipPath>
</defs>
</svg>
