<svg xmlns="http://www.w3.org/2000/svg" width="312" height="88" fill="none" xmlns:v="https://vecta.io/nano"><g clip-path="url(#C)"><path fill="url(#A)" fill-opacity=".8" d="M0 0h312v88H0z"/><g opacity=".5"><path fill-rule="evenodd" d="M199.164 17.562a6.14 6.14 0 0 1 6.137-6.137h42.23a6.14 6.14 0 0 1 6.136 6.137v7.084h19.192l-2.858-2.858c-.239-.24-.239-.628 0-.868s.629-.24.868 0l3.906 3.905c.239.24.239.628 0 .868l-3.906 3.906c-.239.24-.628.24-.868 0s-.239-.628 0-.868l2.858-2.858h-19.192v8.258a6.14 6.14 0 0 1-6.136 6.137h-42.23a6.14 6.14 0 0 1-6.137-6.137v-8.515h-10.41a1.84 1.84 0 0 0-1.841 1.841v18.067 16.456a1.84 1.84 0 0 0 1.841 1.841h10.41V53.77a6.14 6.14 0 0 1 6.137-6.137h42.23a6.14 6.14 0 0 1 6.136 6.137v7.589h19.192l-2.858-2.858c-.239-.24-.239-.628 0-.868s.629-.24.868 0l3.906 3.906c.239.24.239.628 0 .868l-3.906 3.905c-.239.24-.628.24-.868 0s-.239-.628 0-.868l2.858-2.858h-19.192v7.753a6.14 6.14 0 0 1-6.136 6.137h-42.23a6.14 6.14 0 0 1-6.137-6.137v-5.29h-10.41a3.07 3.07 0 0 1-3.068-3.068V46.139h-8.729c-.112.422-.338.821-.679 1.146l-23.653 22.553c-.948.904-2.44.904-3.388 0l-23.653-22.553c-1.03-.982-1.012-2.631.039-3.59l23.653-21.583c.938-.855 2.372-.855 3.31 0l23.653 21.583a2.45 2.45 0 0 1 .727 1.216h8.72V27.458a3.07 3.07 0 0 1 3.068-3.068h10.41v-6.827zm77.231 4.093a6.14 6.14 0 0 1 6.137-6.137h42.23a6.14 6.14 0 0 1 6.137 6.137v5.523a6.14 6.14 0 0 1-6.137 6.137h-42.23a6.14 6.14 0 0 1-6.137-6.137v-5.523zM119.116 40.115l3.906 3.905c.239.24.239.628 0 .868l-3.906 3.906c-.239.24-.628.24-.868 0s-.239-.628 0-.868l2.858-2.858h-16.212a1.84 1.84 0 0 0-1.841 1.841v20.333a3.07 3.07 0 0 1-3.068 3.068H75.152c-.339 0-.614-.275-.614-.614s.275-.614.614-.614h24.833a1.84 1.84 0 0 0 1.841-1.841V46.909a3.07 3.07 0 0 1 3.068-3.068h16.212l-2.858-2.858c-.239-.24-.239-.628 0-.868s.629-.24.868 0zm163.416 12.839a6.14 6.14 0 0 0-6.137 6.137v5.523a6.14 6.14 0 0 0 6.137 6.137h42.23a6.14 6.14 0 0 0 6.137-6.137V59.09a6.14 6.14 0 0 0-6.137-6.137h-42.23z" fill="url(#B)" fill-opacity=".4"/></g></g><defs><linearGradient id="A" x1="-38.783" y1="37.23" x2="341.516" y2="36.422" gradientUnits="userSpaceOnUse"><stop stop-color="#a4d0ff"/><stop offset=".975" stop-color="#21609b"/></linearGradient><linearGradient id="B" x1="74.538" y1="43.951" x2="330.899" y2="43.951" gradientUnits="userSpaceOnUse"><stop stop-color="#628aba"/><stop offset="1" stop-color="#094074"/></linearGradient><clipPath id="C"><path fill="#fff" d="M0 0h312v88H0z"/></clipPath></defs></svg>