<svg width="60" height="60" viewBox="0 0 60 60" fill="none" xmlns="http://www.w3.org/2000/svg">
<rect x="1" y="1.00012" width="58" height="58" rx="17" fill="#FFE379"/>
<rect x="1" y="1.00012" width="58" height="58" rx="17" stroke="#FAFAFA" stroke-width="2"/>
<g clip-path="url(#clip0_1595_504)">
<path d="M50 2.00012H10C5.58172 2.00012 2 5.58184 2 10.0001V50.0001C2 54.4184 5.58172 58.0001 10 58.0001H50C54.4183 58.0001 58 54.4184 58 50.0001V10.0001C58 5.58184 54.4183 2.00012 50 2.00012Z" fill="#A4D0FF"/>
<path d="M31.0331 46.0001H30.0022C29.739 45.9428 29.485 45.8642 29.2494 45.7278C28.1549 45.0936 27.0587 44.4624 25.963 43.83C23.3119 42.2998 20.6613 40.7695 18.0108 39.2381C17.7745 39.1016 17.5251 38.9841 17.3107 38.8133C16.7987 38.405 16.4885 37.8684 16.3309 37.2383C16.3125 37.1655 16.3005 37.0909 16.2856 37.017C16.2856 32.3511 16.2856 27.6847 16.2856 23.0188C16.2902 23.0011 16.2965 22.9839 16.2993 22.9661C16.3469 22.6427 16.4593 22.3411 16.6181 22.0573C16.844 21.6531 17.1341 21.3074 17.5412 21.0723C19.1597 20.1378 20.7788 19.2027 22.3974 18.2681C24.5847 17.0056 26.7714 15.7431 28.9587 14.4806C29.211 14.335 29.4581 14.1802 29.7442 14.1022C30.0486 14.0191 30.3582 13.9881 30.6719 14.0042C31.0612 14.0243 31.4338 14.1103 31.7755 14.3075C33.6693 15.4014 35.563 16.4948 37.4574 17.5881C39.401 18.7102 41.3429 19.8351 43.29 20.9508C43.6884 21.179 44.0336 21.4548 44.2853 21.8418C44.5651 22.2706 44.7531 22.7287 44.7531 23.251C44.7531 27.7632 44.7531 32.2754 44.7531 36.7876C44.7531 36.8501 44.7572 36.9138 44.748 36.9751C44.615 37.8495 44.2085 38.553 43.431 39.0025C39.6905 41.1668 35.9466 43.3249 32.2044 45.4864C31.8323 45.7014 31.4683 45.9307 31.0331 46.0001ZM21.0346 30.0193C21.0323 30.4058 21.0569 30.7905 21.1051 31.1729C21.2713 32.5008 21.6928 33.7415 22.3871 34.8882C23.1387 36.1283 24.1168 37.1517 25.3295 37.9469C26.6361 38.8041 28.0689 39.3058 29.6255 39.4543C30.341 39.5225 31.0554 39.5104 31.7669 39.4147C32.8764 39.2651 33.9284 38.9314 34.9192 38.4085C36.497 37.5748 37.7469 36.3932 38.6677 34.8635C38.7256 34.7672 38.725 34.7666 38.6287 34.711C37.3221 33.9548 36.0148 33.1991 34.7088 32.4411C34.6509 32.4073 34.6239 32.4108 34.5872 32.4704C33.5907 34.101 31.7732 34.9856 29.8858 34.7225C28.3389 34.5069 27.1664 33.7013 26.3856 32.3477C25.8827 31.4762 25.6895 30.5302 25.7973 29.5286C25.9326 28.2752 26.4802 27.2295 27.4371 26.4142C28.4599 25.5421 29.6548 25.1568 30.9935 25.3013C32.5432 25.4687 33.7335 26.2359 34.5723 27.5488C34.6314 27.6417 34.6296 27.6428 34.726 27.5872C36.0286 26.8339 37.3307 26.0805 38.6333 25.3265C38.7267 25.2726 38.7279 25.2698 38.6734 25.1786C38.2176 24.4166 37.6684 23.7304 37.0199 23.122C36.2906 22.4375 35.4759 21.8796 34.5712 21.4536C33.0598 20.7415 31.4717 20.444 29.805 20.5661C29.0797 20.6194 28.3699 20.7524 27.6779 20.9732C25.8134 21.5677 24.2694 22.633 23.0619 24.1707C21.7157 25.885 21.0523 27.8435 21.0346 30.0216V30.0193ZM42.9007 31.0674C42.9007 30.9292 42.9007 30.7916 42.9007 30.6535C42.9007 30.5376 42.9035 30.5348 43.0182 30.5342C43.294 30.5336 43.5703 30.5342 43.8461 30.5342C43.9413 30.5342 43.9499 30.5256 43.9499 30.4316C43.9499 30.1558 43.9499 29.8794 43.9499 29.6037C43.9499 29.5102 43.9419 29.5028 43.8455 29.5022C43.5669 29.5016 43.2883 29.5022 43.0096 29.5016C42.9053 29.5016 42.9007 29.4959 42.9001 29.3898C42.9001 29.106 42.8984 28.8222 42.9012 28.5384C42.9018 28.4679 42.8795 28.4415 42.8066 28.4427C42.5257 28.4455 42.2442 28.4438 41.9633 28.4438C41.8669 28.4438 41.8612 28.4495 41.8606 28.5459C41.8606 28.8245 41.8606 29.1031 41.8606 29.3818C41.8606 29.4947 41.8537 29.5016 41.7414 29.5016C41.4627 29.5022 41.1841 29.5016 40.9054 29.5016C40.8091 29.5016 40.8017 29.5091 40.8017 29.6031C40.8017 29.8789 40.8017 30.1552 40.8017 30.431C40.8017 30.5256 40.8091 30.5331 40.9043 30.5336C41.1852 30.5342 41.4667 30.5336 41.7477 30.5342C41.8515 30.5342 41.8595 30.5428 41.8601 30.6454C41.8606 30.9292 41.8618 31.213 41.8595 31.4968C41.8589 31.5674 41.8836 31.5932 41.9552 31.5926C42.2413 31.5897 42.528 31.5903 42.8141 31.5926C42.8789 31.5926 42.9018 31.5685 42.9007 31.5049C42.8978 31.3592 42.9007 31.213 42.9007 31.0674ZM37.908 31.0634C37.908 31.2067 37.9109 31.3501 37.9069 31.4928C37.9051 31.5668 37.9315 31.5937 38.0066 31.5932C38.2824 31.5897 38.5582 31.592 38.8345 31.592C38.932 31.592 38.94 31.584 38.9406 31.4837C38.9412 31.2182 38.9406 30.9527 38.9406 30.6873C38.9406 30.5856 38.9903 30.5348 39.0897 30.5348C39.358 30.5348 39.6257 30.5348 39.8941 30.5348C39.9892 30.5348 39.9973 30.5262 39.9973 30.4321C39.9973 30.1564 39.9973 29.8806 39.9973 29.6042C39.9973 29.5102 39.9898 29.5028 39.8935 29.5028C39.62 29.5022 39.3471 29.5028 39.0736 29.5028C38.9446 29.5028 38.9412 29.4999 38.9412 29.3732C38.9412 29.0997 38.9412 28.8268 38.9412 28.5533C38.9412 28.453 38.9331 28.4455 38.8357 28.4449C38.5622 28.4449 38.2893 28.4449 38.0158 28.4449C37.9155 28.4449 37.9097 28.4507 37.9092 28.551C37.9092 28.8297 37.9092 29.1083 37.9092 29.3864C37.9092 29.4942 37.9017 29.5022 37.7939 29.5022C37.5153 29.5028 37.2372 29.5022 36.9586 29.5022C36.8571 29.5022 36.8513 29.5085 36.8508 29.6077C36.8508 29.8783 36.8508 30.1489 36.8508 30.4195C36.8508 30.5285 36.8559 30.5336 36.9654 30.5342C37.2464 30.5342 37.5279 30.5359 37.8088 30.5342C37.8816 30.5342 37.912 30.5594 37.9103 30.6345C37.9069 30.7779 37.9092 30.9206 37.9092 31.064L37.908 31.0634Z" fill="#004482" fill-opacity="0.8"/>
</g>
<defs>
<clipPath id="clip0_1595_504">
<rect x="2" y="2.00012" width="56" height="56" rx="16" fill="white"/>
</clipPath>
</defs>
</svg>
