<svg xmlns="http://www.w3.org/2000/svg" width="312" height="88" fill="none" xmlns:v="https://vecta.io/nano"><g clip-path="url(#B)"><path fill="url(#A)" d="M0 0h312v88H0z"/><g opacity=".4"><g fill="#ffaf8c"><path d="M177.891-23.869H308.98V3.723v81.983H177.891V3.723-23.869z" stroke="#e44d26" stroke-width="4.599"/><path d="M305.002 7.088H181.867v58.138a16.15 16.15 0 0 0 16.148 16.148h90.839a16.15 16.15 0 0 0 16.148-16.148V7.088z"/></g><path d="M222.357 30.904L212.11 41.151a3.23 3.23 0 0 0 0 4.567l10.052 10.052m27.999-29.566l-16.447 33.678m27.412-30.153l9.945 12.265a3.23 3.23 0 0 1-.189 4.281l-10.147 10.474" stroke="#b54021" stroke-width="4.599" stroke-linecap="round"/></g><g fill="#fff"><path d="M129.597 26.635a1 1 0 1 0 0 2v-2zm61.203 1.707a1 1 0 0 0 0-1.414l-6.364-6.364a1 1 0 0 0-1.414 1.414l5.657 5.657-5.657 5.657a1 1 0 0 0 1.414 1.414l6.364-6.364zm-61.203.293h60.496v-2h-60.496v2zm41.013 15.517a1 1 0 1 1 0 2v-2zm-61.203 1.707a1 1 0 0 1 0-1.414l6.364-6.364a1 1 0 0 1 1.414 1.414l-5.657 5.657 5.657 5.657a1 1 0 0 1-1.414 1.414l-6.364-6.364zm61.203.293h-60.496v-2h60.496v2z" fill-opacity=".4"/></g></g><defs><linearGradient id="A" x1="0" y1="44" x2="312" y2="44" gradientUnits="userSpaceOnUse"><stop stop-color="#ff6e40"/><stop offset="1" stop-color="#fd5c35"/></linearGradient><clipPath id="B"><path fill="#fff" d="M0 0h312v88H0z"/></clipPath></defs></svg>