<svg width="60" height="60" viewBox="0 0 60 60" fill="none" xmlns="http://www.w3.org/2000/svg">
<rect x="1.07922" y="1.724" width="57.8416" height="57.1969" rx="15.6532" fill="#FFE3D5"/>
<rect x="1.07922" y="1.724" width="57.8416" height="57.1969" rx="15.6532" stroke="#FAFAFA" stroke-width="1.84155"/>
<path d="M28.6554 45.1094C28.0808 45.0161 27.4984 45.0531 26.9199 45.0071C25.8087 44.9164 24.7026 44.8103 23.6214 44.5317C23.3798 44.4691 23.1356 44.4027 22.9424 44.2186C23.5457 44.2838 24.149 44.3503 24.7523 44.4142C26.1547 44.5624 27.5624 44.588 28.9727 44.5931C31.9774 44.6033 34.9573 44.3835 37.8902 43.7087C38.7925 43.5017 39.6857 43.2512 40.4953 42.7886C40.6977 42.6736 40.8819 42.5266 41.1274 42.3579C41.0882 42.6493 40.9733 42.855 40.8087 43.0416C40.4157 43.4864 39.892 43.7381 39.3514 43.9515C38.2271 44.395 37.0453 44.6071 35.8518 44.7669C34.5917 44.9356 33.3276 45.048 32.0545 45.0659C31.9683 45.0659 31.8821 45.094 31.7946 45.1094H28.6567H28.6554Z" fill="#933C23" fill-opacity="0.8"/>
<path d="M29.9637 31.6443C29.1254 30.9632 28.3484 30.2271 27.6263 29.436C27.0804 28.8353 26.5881 28.1989 26.2604 27.4526C25.8242 26.4622 25.9169 25.542 26.5829 24.6704C27.3194 23.7069 28.274 22.9746 29.2259 22.2385C30.1857 21.496 31.1572 20.7688 31.946 19.841C32.9501 18.6602 33.3667 17.3247 33.0402 15.7962C33.022 15.7144 32.9945 15.6275 33.035 15.5355C33.1708 15.5394 33.2022 15.6582 33.2557 15.7387C33.893 16.6934 33.9713 17.7247 33.6566 18.7943C33.3301 19.9075 32.6485 20.8135 31.865 21.6583C31.0789 22.5056 30.1361 23.1803 29.2703 23.9394C28.7976 24.3548 28.3915 24.8264 28.0676 25.3605C27.4082 26.4443 27.4853 27.528 28.0703 28.613C28.5273 29.4616 29.1606 30.1977 29.6686 31.0143C29.79 31.2111 29.9128 31.4066 29.965 31.643L29.9637 31.6443Z" fill="#933C23" fill-opacity="0.8"/>
<path d="M23.6097 40.6881C22.8445 40.7533 22.1668 40.9028 21.5191 41.1724C21.3271 41.2517 21.1391 41.336 20.972 41.4574C20.6925 41.6581 20.7016 41.851 21.015 41.9967C21.4904 42.2191 22.0023 42.3328 22.5168 42.4236C23.7116 42.6332 24.9182 42.7316 26.1313 42.7967C27.6408 42.8773 29.1504 42.8773 30.6573 42.8287C33.0705 42.7507 35.4836 42.6166 37.8511 42.0862C38.218 42.0044 38.5771 41.8996 38.9114 41.7271C39.3672 41.4919 39.4416 41.3156 39.311 40.8427C39.8647 41.0216 39.9626 41.4204 39.5395 41.8012C39.1295 42.1705 38.6124 42.3469 38.0992 42.5182C36.7581 42.9667 35.3687 43.1942 33.9689 43.3782C31.6158 43.6875 29.2496 43.7194 26.8834 43.6594C24.576 43.6006 22.2804 43.3757 20.0069 42.9731C19.7249 42.9233 19.4494 42.8479 19.1947 42.7137C18.739 42.4721 18.6933 42.1118 19.0876 41.7654C19.4598 41.4383 19.9051 41.2261 20.3674 41.0523C21.2383 40.7252 22.125 40.4708 23.073 40.5181C23.2389 40.5258 23.4073 40.5232 23.6123 40.6881H23.6097Z" fill="#933C23" fill-opacity="0.8"/>
<path d="M31.1294 32.6245C31.2208 32.5133 31.3135 32.4022 31.4036 32.2897C32.0696 31.4629 32.0814 30.5427 31.4219 29.7159C30.9727 29.1523 30.5235 28.5938 30.2584 27.9127C29.787 26.6986 30.043 25.6213 30.8643 24.6423C31.6073 23.758 32.5776 23.1676 33.6039 22.6615C34.5115 22.2129 35.4595 21.8576 36.4389 21.5816C36.5133 21.5612 36.5878 21.5445 36.6961 21.5177C36.64 21.6557 36.5316 21.6851 36.4467 21.735C35.3303 22.3906 34.2229 23.0602 33.2266 23.8883C32.827 24.2206 32.4574 24.5797 32.161 25.0066C31.6792 25.7005 31.6726 26.4123 32.0787 27.1369C32.3164 27.5612 32.6115 27.9484 32.8949 28.3433C33.6927 29.4526 33.6692 30.3101 32.8022 31.3708C32.3543 31.9191 31.7862 32.3268 31.1307 32.6245H31.1294Z" fill="#933C23" fill-opacity="0.8"/>
<path d="M25.9375 38.39C25.6123 38.8002 25.6554 38.951 26.1072 39.0929C26.5329 39.2271 26.9795 39.2475 27.4183 39.2948C29.1942 39.4827 30.9584 39.3868 32.7069 39.0367C32.9615 38.9855 33.1809 38.9958 33.4068 39.1389C33.7463 39.3562 34.1237 39.5006 34.4945 39.6603C34.5638 39.6897 34.6721 39.6961 34.6774 39.7843C34.6826 39.8814 34.5716 39.8814 34.5037 39.9082C33.3533 40.3632 32.1571 40.6431 30.9244 40.7594C29.3757 40.9063 27.8335 40.8705 26.3161 40.482C25.8565 40.3645 25.4125 40.2034 25.0064 39.9581C24.3783 39.5772 24.394 39.0686 25.0417 38.7223C25.308 38.5804 25.5836 38.4552 25.9361 38.3875L25.9375 38.39Z" fill="#933C23" fill-opacity="0.8"/>
<path d="M26.4563 31.8089C25.8348 31.975 25.238 32.1386 24.653 32.3392C24.3161 32.4555 23.9922 32.5935 23.6867 32.7725C23.577 32.8364 23.4595 32.913 23.4699 33.0587C23.4804 33.2108 23.6188 33.2555 23.7363 33.2977C24.2717 33.483 24.8345 33.5188 25.3934 33.5635C26.8416 33.6785 28.291 33.6185 29.7379 33.5546C31.8351 33.4626 33.9218 33.2402 35.9941 32.9028C36.0803 32.8888 36.1652 32.8517 36.3258 32.9297C35.776 33.1456 35.3569 33.5098 34.8241 33.644C33.5901 33.9559 32.33 34.1105 31.062 34.2268C29.431 34.3776 27.7961 34.4262 26.1599 34.3801C24.969 34.3469 23.7781 34.2702 22.6042 34.044C22.2842 33.9827 21.9695 33.8996 21.6692 33.7731C21.489 33.6964 21.284 33.621 21.2605 33.3961C21.2356 33.1661 21.4302 33.0587 21.5974 32.9616C22.057 32.6919 22.5584 32.5143 23.0586 32.338C24.1045 31.9686 25.1897 31.782 26.2983 31.7296C26.3453 31.7271 26.3963 31.7181 26.4563 31.8089Z" fill="#933C23" fill-opacity="0.8"/>
<path d="M25.1543 35.1669C25.1543 35.2921 25.0681 35.3394 25.0211 35.4084C24.8082 35.7305 24.8696 35.9375 25.2326 36.0921C25.5656 36.234 25.9247 36.2429 26.2747 36.28C28.5821 36.519 30.8803 36.4461 33.1577 36.0142C33.7022 35.9106 34.1867 35.8646 34.6255 36.2851C34.7796 36.4333 35.0133 36.5011 35.2144 36.6071C35.1635 36.7439 35.0342 36.7222 34.9402 36.7477C33.4907 37.1349 32.0177 37.3841 30.5186 37.4787C28.8028 37.5873 27.0934 37.595 25.4011 37.2372C24.9088 37.1324 24.4217 37.0046 23.996 36.7247C23.5233 36.4142 23.5194 36.041 23.9817 35.7075C24.3316 35.4544 24.7234 35.2883 25.1504 35.1669H25.1543Z" fill="#933C23" fill-opacity="0.8"/>
<path d="M36.9851 32.03C37.3141 31.6504 37.6928 31.5725 38.0702 31.515C38.889 31.3897 39.6607 31.4996 40.3371 32.0147C41.0997 32.5961 41.3478 33.5674 40.9496 34.4313C40.6662 35.0473 40.2092 35.5189 39.6542 35.9061C38.7088 36.5642 37.6484 36.9681 36.5398 37.2684C36.5045 37.2773 36.4653 37.2684 36.4053 37.2684C36.4431 37.0844 36.5985 37.0511 36.7174 36.9872C37.5505 36.5387 38.3418 36.0339 38.9947 35.3489C39.4322 34.8901 39.7861 34.3764 39.8331 33.7271C39.9114 32.6575 38.9582 31.7667 37.8678 31.8805C37.5975 31.9086 37.3311 31.9687 36.9851 32.0274V32.03Z" fill="#933C23" fill-opacity="0.8"/>
</svg>
