<svg xmlns="http://www.w3.org/2000/svg" width="312" height="88" fill="none" xmlns:v="https://vecta.io/nano"><g clip-path="url(#B)"><path fill="url(#A)" d="M0 0h312v88H0z"/><g stroke="#fff"><circle cx="242.169" cy="57.19" r="45.11" stroke-opacity=".17"/><circle cx="242.169" cy="57.19" r="94.226" stroke-opacity=".17"/><circle cx="242.168" cy="57.19" r="78.356" stroke-opacity=".2"/><circle cx="242.169" cy="57.19" r="61.265" stroke-opacity=".17"/></g><g opacity=".7" fill="#b63932"><path d="M253.334 60.989a98.05 98.05 0 0 1-10.597-10.006c-2.474-2.722-4.706-5.605-6.192-8.987-1.978-4.488-1.557-8.657 1.462-12.606 3.339-4.366 7.667-7.684 11.983-11.019 4.351-3.364 8.756-6.659 12.331-10.863 4.553-5.351 6.442-11.402 4.962-18.327-.083-.371-.208-.764-.024-1.181.616.017.758.556 1 .921 2.889 4.326 3.245 8.999 1.818 13.845-1.48 5.044-4.571 9.149-8.123 12.977-3.564 3.839-7.838 6.897-11.763 10.336-2.143 1.882-3.984 4.019-5.453 6.439-2.989 4.91-2.64 9.821.012 14.737 2.072 3.845 4.944 7.18 7.247 10.881.55.892 1.107 1.778 1.343 2.849l-.006.006zm5.286 4.441l1.243-1.517c3.02-3.746 3.073-7.916.083-11.662-2.036-2.554-4.073-5.084-5.275-8.17-2.137-5.501-.977-10.382 2.747-14.818 3.369-4.007 7.768-6.682 12.421-8.975 4.114-2.032 8.413-3.642 12.853-4.893.337-.093.675-.168 1.166-.29-.255.625-.746.759-1.131.984-5.062 2.971-10.082 6.005-14.599 9.757-1.812 1.506-3.487 3.133-4.831 5.067-2.185 3.144-2.214 6.37-.373 9.653 1.078 1.922 2.416 3.677 3.7 5.466 3.617 5.026 3.511 8.912-.42 13.718-2.031 2.484-4.606 4.331-7.578 5.681h-.006zm-21.186-3.695l-8.176 2.403c-1.527.527-2.995 1.152-4.381 1.963-.497.29-1.03.637-.983 1.297.048.689.675.892 1.208 1.083 2.427.84 4.979 1.002 7.513 1.204 6.565.521 13.137.249 19.697-.04 9.507-.417 18.968-1.425 28.363-2.953.391-.064.776-.232 1.504.122-2.492.979-4.393 2.629-6.808 3.237-5.595 1.413-11.308 2.114-17.056 2.641-7.395.683-14.807.903-22.225.695-5.399-.151-10.798-.498-16.121-1.523-1.45-.278-2.877-.654-4.239-1.228-.817-.348-1.746-.689-1.853-1.708-.112-1.042.77-1.529 1.528-1.969 2.084-1.222 4.357-2.027 6.625-2.826 4.742-1.673 9.661-2.519 14.688-2.756.213-.012.444-.052.716.359zm-5.902 15.215c0 .568-.391.782-.604 1.094-.965 1.459-.686 2.397.959 3.098 1.51.643 3.138.683 4.725.851 10.461 1.083 20.88.753 31.205-1.204 2.469-.469 4.665-.677 6.655 1.228.698.672 1.758.979 2.67 1.459-.231.62-.817.521-1.244.637-6.571 1.755-13.249 2.884-20.045 3.312-7.78.492-15.529.527-23.202-1.094-2.232-.475-4.44-1.054-6.37-2.322-2.143-1.407-2.161-3.098-.065-4.609 1.586-1.146 3.363-1.899 5.298-2.449h.018zm53.637-14.213c1.492-1.72 3.208-2.073 4.919-2.334 3.712-.568 7.211-.07 10.278 2.264 3.457 2.635 4.582 7.036 2.776 10.95-1.284 2.791-3.356 4.928-5.872 6.682-4.287 2.982-9.094 4.812-14.12 6.173-.16.04-.338 0-.61 0 .172-.834.876-.984 1.415-1.274 3.777-2.032 7.365-4.32 10.325-7.424 1.983-2.079 3.588-4.407 3.801-7.348.355-4.847-3.967-8.883-8.91-8.367-1.226.127-2.434.4-4.002.666v.012z"/></g></g><defs><linearGradient id="A" x1="-38.783" y1="37.23" x2="341.516" y2="36.422" gradientUnits="userSpaceOnUse"><stop stop-color="#ffb88e"/><stop offset=".975" stop-color="#ea5753"/></linearGradient><clipPath id="B"><path fill="#fff" d="M0 0h312v88H0z"/></clipPath></defs></svg>