<svg width="60" height="60" viewBox="0 0 60 60" fill="none" xmlns="http://www.w3.org/2000/svg">
<rect x="1" y="1" width="58" height="58.0001" rx="17" fill="#FFE379"/>
<rect x="1" y="1" width="58" height="58.0001" rx="17" stroke="#FAFAFA" stroke-width="2"/>
<path d="M31.11 16C31.6491 16.0702 32.1901 16.12 32.7255 16.2142C33.8444 16.4154 34.9171 16.7459 35.7922 17.5195C36.4126 18.0679 36.7745 18.7528 36.7782 19.5947C36.7837 21.6201 36.7818 23.6437 36.7745 25.669C36.7726 26.2045 36.7283 26.7399 36.54 27.2495C36.0839 28.4846 35.1313 29.1198 33.8979 29.4004C33.5268 29.4853 33.1465 29.5204 32.7643 29.5204C30.5211 29.5167 28.2797 29.513 26.0364 29.5241C25.2684 29.5278 24.5428 29.718 23.9058 30.1685C23.0602 30.7667 22.6522 31.627 22.4583 32.6111C22.4011 32.8973 22.39 33.1872 22.3918 33.4789C22.3918 34.4777 22.3918 35.4766 22.3918 36.4754C22.3918 36.649 22.3881 36.8114 22.1481 36.8096C21.4041 36.8059 20.6563 36.841 19.9159 36.7948C18.6032 36.7117 17.7004 35.9714 17.0597 34.8747C16.5225 33.9571 16.2658 32.9453 16.1347 31.904C15.9353 30.318 15.9353 28.7339 16.2843 27.1664C16.5317 26.0494 16.9674 25.0228 17.8296 24.2234C18.5552 23.5513 19.4137 23.1969 20.396 23.195C23.4553 23.1839 26.5164 23.1932 29.5758 23.195C29.8662 23.195 30.0115 23.0516 30.0115 22.7648C30.0115 22.4436 29.849 22.2829 29.5241 22.2829C27.5633 22.2829 25.6007 22.2829 23.6399 22.2829C23.2522 22.2829 23.2559 22.2829 23.2503 21.886C23.2393 21.033 23.2411 20.18 23.2097 19.327C23.1728 18.3189 23.6473 17.6137 24.4615 17.0949C25.3219 16.5447 26.293 16.3176 27.2845 16.1625C27.7221 16.0942 28.1652 16.0554 28.6046 16.0018C29.441 16.0018 30.2755 16.0018 31.1119 16.0018L31.11 16ZM27.3491 19.3953C27.3565 18.7048 26.8672 18.1897 26.1952 18.1842C25.5084 18.1768 24.9711 18.6956 24.9674 19.3695C24.9637 20.012 25.5158 20.5622 26.1693 20.5659C26.8211 20.5696 27.3417 20.0526 27.3491 19.3953Z" fill="#B97A00" fill-opacity="0.8"/>
<path d="M35.0609 36.6011C33.4897 36.6011 31.9185 36.6011 30.3473 36.6011C29.978 36.6011 29.9743 36.6011 29.9762 36.9592C29.9762 37.5833 29.9208 37.5205 30.5264 37.5205C32.4797 37.5205 34.4313 37.5205 36.3847 37.5205C36.7724 37.5205 36.7742 37.5242 36.7761 37.9193C36.7761 38.8092 36.7613 39.6991 36.7835 40.5891C36.8056 41.4421 36.4142 42.0661 35.7643 42.5591C35.1439 43.0299 34.4276 43.3031 33.678 43.4564C31.2833 43.9475 28.8832 43.9752 26.4959 43.4102C25.6392 43.2071 24.8416 42.8582 24.1825 42.2489C23.5825 41.6931 23.2427 41.0285 23.2501 40.1847C23.2667 38.0319 23.2538 35.8792 23.263 33.7282C23.2667 32.9916 23.4772 32.3121 23.924 31.7176C24.5093 30.9385 25.3346 30.5766 26.2559 30.3827C26.5421 30.3218 26.8319 30.32 27.1236 30.32C29.2487 30.32 31.3738 30.3255 33.4989 30.3163C34.0971 30.3144 34.6971 30.272 35.2713 30.0689C36.5748 29.6055 37.245 28.6214 37.5257 27.3216C37.6069 26.9394 37.6457 26.5517 37.6438 26.1584C37.6401 25.2224 37.6494 24.2881 37.6383 23.3521C37.6364 23.1065 37.714 23.0142 37.9651 23.0197C38.5633 23.0326 39.1633 23.0382 39.7634 23.0197C40.9727 22.9846 41.8977 23.509 42.6122 24.4469C43.2732 25.3147 43.6018 26.3209 43.7772 27.3807C44.0837 29.2343 44.104 31.088 43.6461 32.9214C43.3618 34.0624 42.8541 35.0871 41.8903 35.8256C41.2349 36.326 40.4964 36.5992 39.6674 36.6029C38.1331 36.6085 36.597 36.6029 35.0627 36.6029L35.0609 36.6011ZM32.6385 40.4451C32.6404 41.1005 33.1813 41.6433 33.8312 41.6451C34.4904 41.6451 35.0332 41.0913 35.0276 40.4211C35.0221 39.7638 34.4774 39.232 33.8202 39.2413C33.1555 39.2505 32.6348 39.7804 32.6367 40.4451H32.6385Z" fill="#B97A00" fill-opacity="0.8"/>
</svg>
