<svg xmlns="http://www.w3.org/2000/svg" width="312" height="88" fill="none" xmlns:v="https://vecta.io/nano"><g clip-path="url(#D)"><path fill="url(#A)" d="M0 0h312v88H0z"/><g stroke="#fff"><circle cx="242.169" cy="57.19" r="45.11" stroke-opacity=".17"/><circle cx="242.169" cy="57.19" r="94.226" stroke-opacity=".17"/><circle cx="242.168" cy="57.19" r="78.356" stroke-opacity=".2"/><circle cx="242.169" cy="57.19" r="61.265" stroke-opacity=".17"/></g><path d="M272.075 1l7.385.979c5.115.92 10.018 2.431 14.019 5.967 2.836 2.507 4.49 5.638 4.507 9.487l-.017 27.768c-.008 2.448-.211 4.895-1.072 7.225-2.084 5.646-6.44 8.55-12.078 9.833-1.696.388-3.435.549-5.182.549-10.255-.017-20.501-.034-30.756.017-3.511.017-6.828.886-9.74 2.946-3.866 2.735-5.731 6.668-6.617 11.166-.262 1.308-.313 2.633-.304 3.967v13.698c0 .793-.017 1.536-1.114 1.528-3.402-.017-6.82.144-10.205-.067-6.001-.38-10.128-3.764-13.057-8.778-2.456-4.195-3.629-8.82-4.228-13.58-.912-7.25-.912-14.492.684-21.658 1.131-5.106 3.122-9.799 7.064-13.454 3.317-3.072 7.242-4.693 11.732-4.701h41.965c1.328 0 1.992-.655 1.992-1.967 0-1.469-.743-2.203-2.229-2.203h-26.899c-1.772 0-1.755 0-1.78-1.815l-.186-11.698c-.169-4.608 2-7.832 5.722-10.204 3.933-2.515 8.373-3.553 12.905-4.262 2.001-.312 4.026-.49 6.035-.734h11.462L272.075 1zm-17.193 15.522c.034-3.157-2.203-5.511-5.275-5.537-3.14-.034-5.596 2.338-5.613 5.419-.017 2.937 2.507 5.452 5.495 5.469 2.979.017 5.359-2.346 5.393-5.351z" fill="url(#B)"/><path d="M290.136 95.176h-21.548c-1.688 0-1.705 0-1.696 1.637 0 2.853-.253 2.566 2.515 2.566h26.781c1.772 0 1.781.017 1.789 1.824l.034 12.204c.101 3.899-1.688 6.752-4.659 9.006-2.836 2.152-6.111 3.401-9.538 4.102-10.946 2.245-21.919 2.371-32.832-.211-3.916-.929-7.562-2.524-10.576-5.309-2.743-2.541-4.296-5.579-4.262-9.436l.059-29.516c.017-3.368.979-6.474 3.022-9.191 2.675-3.562 6.448-5.216 10.66-6.102 1.308-.279 2.633-.287 3.967-.287l29.144-.017c2.734-.008 5.477-.203 8.102-1.131 5.959-2.118 9.023-6.617 10.306-12.559a24.92 24.92 0 0 0 .54-5.317l-.025-12.829c-.009-1.123.346-1.545 1.494-1.519 2.734.059 5.477.084 8.22 0 5.529-.16 9.757 2.237 13.024 6.524 3.021 3.967 4.524 8.567 5.326 13.412 1.401 8.474 1.493 16.948-.6 25.329-1.3 5.216-3.621 9.9-8.026 13.276-2.997 2.287-6.373 3.536-10.162 3.553h-21.05l-.009-.009zm-11.073 17.573c.008 2.996 2.481 5.477 5.452 5.486 3.013 0 5.495-2.532 5.469-5.596a5.46 5.46 0 0 0-5.52-5.393c-3.038.042-5.418 2.464-5.41 5.503h.009z" fill="url(#C)"/></g><defs><linearGradient id="A" x1="0" y1="44" x2="318.249" y2="43.209" gradientUnits="userSpaceOnUse"><stop stop-color="#ffbd55"/><stop offset=".61" stop-color="#fd9155"/><stop offset=".955" stop-color="#f4d666"/></linearGradient><linearGradient id="B" x1="209.178" y1="44.756" x2="281.819" y2="42.521" gradientUnits="userSpaceOnUse"><stop stop-color="#fcc368"/><stop offset="1" stop-color="#ffe379"/></linearGradient><linearGradient id="C" x1="242.312" y1="76.823" x2="314.843" y2="74.594" gradientUnits="userSpaceOnUse"><stop stop-color="#fcc368"/><stop offset="1" stop-color="#ffe379"/></linearGradient><clipPath id="D"><path fill="#fff" d="M0 0h312v88H0z"/></clipPath></defs></svg>