<svg xmlns="http://www.w3.org/2000/svg" width="312" height="88" fill="none" xmlns:v="https://vecta.io/nano"><g clip-path="url(#B)"><path fill="url(#A)" fill-opacity=".8" d="M0 0h312v88H0z"/><g fill="#fff"><path d="M215.116 20.512c0 2.945 2.388 5.333 5.333 5.333s5.333-2.388 5.333-5.333-2.387-5.333-5.333-5.333-5.333 2.388-5.333 5.333zM61.061 46.205v-2.837h-2v2.837h2zm0-8.51v-5.673h-2v5.673h2zm0-11.347v-2.837h-2v2.837h2zm0-2.837a2 2 0 0 1 2-2v-2a4 4 0 0 0-4 4h2zm2-2h2.459v-2h-2.459v2zm7.378 0h4.918v-2h-4.918v2zm9.837 0h4.918v-2h-4.918v2zm9.837 0h4.918v-2h-4.918v2zm9.837 0h4.919v-2H99.95v2zm9.837 0h4.919v-2h-4.919v2zm9.837 0h4.918v-2h-4.918v2zm9.837 0h4.918v-2h-4.918v2zm9.837 0h4.918v-2h-4.918v2zm9.836 0h4.919v-2h-4.919v2zm9.837 0h4.919v-2h-4.919v2zm9.837 0h4.918v-2h-4.918v2zm9.837 0h4.918v-2h-4.918v2zm9.837 0h4.918v-2h-4.918v2zm9.836 0h4.919v-2h-4.919v2zm9.837 0h4.919v-2h-4.919v2zm9.837 0h2.459v-2h-2.459v2zm26.222 25.775a1 1 0 1 1 0 2v-2zm-95.599 17.831c2.946 0 5.334 2.388 5.334 5.333s-2.388 5.333-5.334 5.333-5.333-2.388-5.333-5.333 2.388-5.333 5.333-5.333zm95.599-15.831h-2.572v-2h2.572v2zm-7.717 0h-5.144v-2h5.144v2zm-10.288 0h-5.145v-2h5.145v2zm-10.289 0h-5.145v-2h5.145v2zm-10.289 0h-5.144v-2h5.144v2zm-10.289 0h-5.144v-2h5.144v2zm-10.288 0h-5.145v-2h5.145v2zm-10.289 0h-5.144v-2h5.144v2zm-10.289 0h-5.144v-2h5.144v2zm-10.289 0h-2.572v-2h2.572v2zm-2.572 0a2 2 0 0 0-2 2h-2a4 4 0 0 1 4-4v2zm-2 2v2.396h-2v-2.396h2zm0 7.187v4.791h-2v-4.791h2zm0 9.582v2.396h-2v-2.396h2z" fill-opacity=".4"/></g><g clip-path="url(#C)"><path fill="#4f8d36" d="M226 2h84v92h-84z"/><path fill="#4b8933" d="M226 2h84.059v91.842H226z"/><path fill="#61a049" d="M230.203 6.592h75.653V89.25h-75.653z"/><circle cx="267.166" cy="65.699" r="34.205" fill="#548f3b"/><path d="M298.635 52.296a34.2 34.2 0 0 0-21.975-19.458l-9.494 32.86 31.469-13.403z" fill="#6aa157"/><path d="M267.166 31.494a34.2 34.2 0 0 1 9.437 1.328l-9.437 32.877V31.494z" fill="#7fad73"/><path d="M239.4 85.674a34.2 34.2 0 0 1-6.344-17.431c-.469-6.284.807-12.575 3.688-18.18s7.253-10.304 12.636-13.581a34.2 34.2 0 0 1 17.867-4.988l-.081 34.204L239.4 85.674z" fill="#4d8b34"/><path d="M276.052 98.729c6.737-1.812 12.759-5.642 17.258-10.975l-26.144-22.056-27.855 19.851a34.2 34.2 0 0 0 16.305 12.345 34.21 34.21 0 0 0 20.436.834z" fill="#528f39"/></g></g><defs><linearGradient id="A" x1="-38.783" y1="37.23" x2="341.516" y2="36.422" gradientUnits="userSpaceOnUse"><stop stop-color="#76e161"/><stop offset=".975" stop-color="#145907"/></linearGradient><clipPath id="B"><path fill="#fff" d="M0 0h312v88H0z"/></clipPath><clipPath id="C"><path fill="#fff" transform="translate(226 2)" d="M0 0h84v92H0z"/></clipPath></defs></svg>