<svg width="60" height="60" viewBox="0 0 60 60" fill="none" xmlns="http://www.w3.org/2000/svg">
<rect x="1" y="1.00012" width="58" height="58" rx="17" fill="#49833E"/>
<rect x="1" y="1.00012" width="58" height="58" rx="17" stroke="#FAFAFA" stroke-width="2"/>
<rect x="2" y="2.00012" width="56" height="56" rx="16" fill="#D8F3D3"/>
<path d="M29.9998 13.7487C21.6628 13.7487 14.9092 16.9808 14.9092 20.9715C14.9092 24.9622 21.6628 28.1945 29.9998 28.1945C38.3369 28.1945 45.0905 24.9622 45.0905 20.9715C45.0905 16.9808 38.3369 13.7487 29.9998 13.7487ZM14.9092 24.5831V30.0001C14.9092 33.9908 21.6628 37.223 29.9998 37.223C38.3369 37.223 45.0905 33.9908 45.0905 30.0001V24.5831C45.0905 28.5736 38.3369 31.8058 29.9998 31.8058C21.6628 31.8058 14.9092 28.5736 14.9092 24.5831ZM14.9092 33.6116V39.0288C14.9092 43.0193 21.6628 46.2516 29.9998 46.2516C38.3369 46.2516 45.0905 43.0193 45.0905 39.0288V33.6116C45.0905 37.6022 38.3369 40.8344 29.9998 40.8344C21.6628 40.8344 14.9092 37.6022 14.9092 33.6116Z" fill="#49833E"/>
</svg>
